<?xml version="1.0" standalone="no"?>
<!DOCTYPE svg PUBLIC "-//W3C//DTD SVG 20010904//EN"
 "http://www.w3.org/TR/2001/REC-SVG-20010904/DTD/svg10.dtd">
<svg version="1.0" xmlns="http://www.w3.org/2000/svg"
 width="680.000000pt" height="680.000000pt" viewBox="0 0 680.000000 680.000000"
 preserveAspectRatio="xMidYMid meet">
<metadata>
Created by potrace 1.14, written by Peter Selinger 2001-2017
</metadata>
<g transform="translate(0.000000,680.000000) scale(0.100000,-0.100000)"
fill="#000000" stroke="none">
<path d="M3376 6005 c-9 -13 -16 -29 -16 -34 0 -5 -3 -11 -7 -13 -8 -3 -76
-102 -99 -143 -6 -11 -48 -76 -92 -145 -45 -69 -100 -154 -122 -190 -22 -36
-77 -120 -120 -188 -44 -68 -80 -127 -80 -132 0 -4 -3 -10 -8 -12 -4 -1 -33
-43 -65 -93 -31 -49 -62 -97 -67 -105 -6 -8 -32 -49 -59 -90 -26 -41 -78 -121
-115 -177 -36 -57 -66 -105 -66 -108 0 -3 -5 -11 -11 -18 -13 -15 -88 -131
-209 -322 -132 -210 -296 -461 -302 -463 -4 -2 -8 -8 -8 -14 0 -5 -25 -46 -55
-90 -30 -44 -55 -81 -55 -83 0 -4 -176 -280 -200 -315 -6 -8 -31 -46 -55 -85
-25 -38 -49 -77 -55 -85 -5 -8 -34 -53 -64 -100 -30 -47 -83 -129 -118 -183
-35 -54 -67 -106 -73 -115 -5 -10 -31 -49 -56 -87 -133 -202 -179 -276 -179
-285 0 -5 -4 -10 -10 -10 -5 0 -10 -7 -10 -15 0 -8 -4 -15 -10 -15 -5 0 -10
-7 -10 -15 0 -8 -3 -15 -8 -15 -4 0 -12 -9 -17 -20 -12 -24 -137 -223 -145
-230 -3 -3 -9 -13 -15 -22 -5 -10 -118 -185 -250 -390 -132 -205 -274 -427
-317 -493 -42 -66 -81 -125 -87 -132 -6 -7 -11 -15 -11 -18 0 -5 -102 -165
-123 -192 -8 -10 91 -13 485 -13 l494 0 29 50 c17 27 33 50 38 50 4 0 7 4 7 9
0 5 17 36 38 68 21 32 61 94 90 138 28 44 56 85 62 92 5 7 10 15 10 19 0 4 11
22 25 40 14 18 25 35 25 38 0 4 19 34 42 69 41 62 69 105 147 227 55 86 54 85
106 163 25 37 45 70 45 73 0 3 11 20 25 38 14 18 25 36 25 40 0 4 5 12 10 19
15 17 120 178 120 184 0 2 11 19 25 37 14 18 25 36 25 40 0 4 5 12 10 19 18
21 80 116 80 122 0 3 5 11 11 18 5 7 27 39 48 72 68 107 173 269 202 313 16
24 29 45 29 47 0 3 16 27 35 54 19 26 35 53 35 60 0 6 4 11 9 11 5 0 14 14 21
30 7 17 16 30 21 30 5 0 9 5 9 10 0 9 105 175 120 190 3 3 12 17 20 33 8 15
51 82 95 150 82 126 173 267 256 397 26 41 52 80 56 85 5 6 12 17 16 25 12 24
30 51 65 102 17 26 32 51 32 57 0 6 4 11 9 11 5 0 14 14 21 30 7 17 16 30 21
30 5 0 9 5 9 10 0 12 112 183 123 188 4 2 7 9 7 15 0 10 47 85 61 97 3 3 9 12
12 20 4 8 15 27 25 41 9 15 26 41 37 58 11 17 23 30 27 29 8 -3 103 -148 144
-220 15 -27 31 -48 36 -48 4 0 8 -4 8 -9 0 -12 142 -235 153 -239 4 -2 7 -8 7
-12 0 -7 80 -135 150 -240 5 -8 37 -58 71 -110 33 -52 74 -114 90 -138 16 -23
29 -47 29 -52 0 -6 5 -10 10 -10 6 0 10 -4 10 -10 0 -5 36 -64 80 -131 44 -67
80 -123 80 -125 0 -4 178 -277 190 -291 5 -7 10 -14 10 -17 0 -2 27 -45 60
-95 33 -50 60 -95 60 -100 0 -5 7 -15 16 -22 9 -7 20 -22 25 -34 10 -23 31
-58 40 -65 3 -3 23 -34 45 -70 21 -36 43 -70 49 -76 20 -23 120 -188 118 -194
-4 -15 -308 -485 -315 -488 -5 -2 -8 -7 -8 -12 0 -5 -22 -43 -50 -84 -27 -42
-50 -78 -50 -81 0 -3 -5 -11 -11 -18 -6 -7 -44 -64 -84 -127 -40 -63 -102
-160 -138 -215 -35 -55 -94 -145 -129 -200 -35 -55 -81 -126 -101 -157 l-37
-58 1421 0 c1136 0 1420 3 1412 13 -10 13 -47 71 -131 202 -28 44 -56 85 -62
92 -5 7 -10 14 -10 17 0 6 -154 246 -170 263 -5 7 -10 14 -10 17 0 2 -27 45
-60 95 -33 50 -60 94 -60 99 0 5 -8 17 -19 28 -10 11 -24 31 -31 43 -6 13 -50
82 -97 155 -89 137 -160 246 -254 393 -75 117 -341 531 -394 613 -23 36 -66
103 -96 150 -30 47 -86 133 -124 192 -39 59 -74 115 -80 125 -5 10 -28 45 -49
78 -50 77 -133 205 -178 275 -19 30 -70 109 -114 175 -43 66 -79 122 -79 125
0 3 -25 43 -56 90 -153 234 -189 291 -189 300 0 5 -3 10 -7 10 -5 0 -24 27
-43 60 -19 33 -38 60 -42 60 -5 0 -8 5 -8 10 0 6 -30 56 -66 113 -37 56 -86
131 -109 167 -23 36 -65 101 -93 145 -28 44 -121 188 -206 320 -85 132 -199
309 -253 392 -54 84 -102 161 -108 170 -5 10 -35 56 -65 103 -31 47 -71 109
-90 138 -18 28 -37 52 -41 52 -3 0 -14 -11 -23 -25z"/>
<path d="M3300 3792 c-52 -81 -132 -204 -177 -274 -46 -70 -83 -130 -83 -133
0 -3 -5 -11 -11 -18 -5 -7 -33 -48 -61 -92 -29 -44 -78 -120 -110 -169 -32
-48 -58 -90 -58 -92 0 -2 -16 -27 -35 -54 -19 -27 -35 -52 -35 -56 0 -3 -11
-20 -25 -38 -14 -18 -25 -38 -25 -44 0 -6 -4 -12 -8 -14 -7 -2 -53 -72 -122
-182 -8 -14 -43 -69 -78 -123 -35 -54 -69 -107 -75 -118 -7 -10 -17 -25 -24
-32 -6 -7 -15 -22 -18 -33 -3 -11 -11 -20 -16 -20 -5 0 -9 -5 -9 -10 0 -9 -39
-74 -63 -105 -4 -5 -39 -59 -77 -120 -39 -60 -75 -117 -80 -125 -5 -8 -25 -39
-45 -67 -19 -29 -35 -55 -35 -58 0 -4 -11 -21 -25 -39 -14 -18 -25 -36 -25
-40 0 -4 -5 -12 -10 -19 -6 -7 -33 -46 -59 -87 -27 -41 -73 -113 -103 -160
-272 -420 -368 -572 -368 -580 0 -4 -3 -10 -7 -12 -9 -3 -83 -114 -83 -123 0
-3 216 -5 479 -5 l480 0 20 29 c12 16 21 32 21 36 0 3 11 21 25 39 14 18 25
38 25 44 0 6 4 12 9 14 4 2 49 68 99 148 51 80 95 150 99 155 20 25 103 155
103 160 0 3 5 11 10 18 13 15 19 25 246 377 104 162 191 299 193 305 2 5 7 12
10 15 7 6 59 85 76 115 6 11 53 85 106 165 52 80 113 174 134 210 22 36 44 70
50 76 5 6 19 27 30 47 11 20 23 37 27 37 5 0 8 6 8 13 0 8 11 27 25 43 14 16
25 32 25 36 0 6 115 186 137 214 4 5 14 21 22 35 8 13 28 45 44 71 l30 47 -58
88 c-31 48 -74 114 -94 146 -20 32 -69 108 -108 169 -40 61 -73 112 -73 115 0
2 -11 19 -25 37 -14 18 -25 38 -25 44 0 6 -4 12 -8 14 -5 2 -25 31 -47 66 -21
34 -41 62 -44 62 -3 0 -49 -66 -101 -148z"/>
<path d="M4035 2897 c-10 -17 -23 -36 -27 -42 -14 -18 -78 -117 -78 -121 0 -2
-16 -27 -35 -54 -19 -27 -35 -52 -35 -54 0 -2 -28 -47 -62 -99 -61 -93 -164
-252 -277 -430 -31 -48 -84 -131 -118 -183 -35 -52 -63 -99 -63 -104 0 -6 -4
-10 -10 -10 -5 0 -10 -7 -10 -15 0 -8 -4 -15 -10 -15 -5 0 -10 -7 -10 -15 0
-8 -4 -15 -9 -15 -5 0 -14 -12 -20 -27 -10 -25 -186 -302 -209 -328 -4 -6 -21
-33 -37 -60 -16 -28 -33 -54 -38 -60 -10 -13 -64 -95 -207 -320 -63 -99 -119
-183 -125 -187 -5 -4 207 -8 473 -8 265 0 482 3 482 8 0 4 115 185 255 402
140 217 268 418 285 445 17 28 36 59 43 70 7 11 14 22 17 25 10 10 100 150
100 155 0 9 44 69 53 73 4 2 7 8 7 12 0 5 30 55 67 112 95 144 92 139 74 170
-27 45 -220 342 -229 353 -4 6 -23 36 -42 68 -19 31 -38 57 -42 57 -5 0 -8 4
-8 10 0 5 -31 57 -68 115 l-68 105 -19 -33z"/>
</g>
</svg>
